<svg width="1919" height="963" xmlns="http://www.w3.org/2000/svg"><g><path d="M-21.312678074464202,-48.14796910621226L-113.78556766547263,201.67937812395394L-30.164252584800124,126.15399490110576Z" fill="#ca393e" stroke="#ca393e"/><path d="M-21.312678074464202,-48.14796910621226L-30.164252584800124,126.15399490110576L131.0081418044865,32.21331903710961Z" fill="#cb3139" stroke="#cb3139"/><path d="M-21.312678074464202,-48.14796910621226L131.0081418044865,32.21331903710961L67.45590465143323,-54.75546299479902Z" fill="#c61f2f" stroke="#c61f2f"/><path d="M-21.312678074464202,-48.14796910621226L67.45590465143323,-54.75546299479902L339.74491065368056,-112.2972652874887Z" fill="#c6232c" stroke="#c6232c"/><path d="M67.45590465143323,-54.75546299479902L131.0081418044865,32.21331903710961L200.8070716727525,-64.57255074754357Z" fill="#cc2a35" stroke="#cc2a35"/><path d="M67.45590465143323,-54.75546299479902L200.8070716727525,-64.57255074754357L339.74491065368056,-112.2972652874887Z" fill="#cc3031" stroke="#cc3031"/><path d="M200.8070716727525,-64.57255074754357L131.0081418044865,32.21331903710961L190.65299740992486,25.00163965858519Z" fill="#d33c3e" stroke="#d33c3e"/><path d="M200.8070716727525,-64.57255074754357L190.65299740992486,25.00163965858519L339.74491065368056,-112.2972652874887Z" fill="#d3383a" stroke="#d3383a"/><path d="M339.74491065368056,-112.2972652874887L190.65299740992486,25.00163965858519L434.4584690965712,73.96445791237056Z" fill="#e1554a" stroke="#e1554a"/><path d="M339.74491065368056,-112.2972652874887L434.4584690965712,73.96445791237056L574.8751939740032,-116.17979370988905Z" fill="#de5655" stroke="#de5655"/><path d="M574.8751939740032,-116.17979370988905L434.4584690965712,73.96445791237056L632.4229102302343,40.47306806780398Z" fill="#e7746f" stroke="#e7746f"/><path d="M574.8751939740032,-116.17979370988905L632.4229102302343,40.47306806780398L615.8230726327747,-106.72250524163246Z" fill="#e06a6c" stroke="#e06a6c"/><path d="M574.8751939740032,-116.17979370988905L615.8230726327747,-106.72250524163246L1095.0517904106528,-98.86033717542887Z" fill="#d2706f" stroke="#d2706f"/><path d="M574.8751939740032,-116.17979370988905L1095.0517904106528,-98.86033717542887L1399.5238482858986,-116.8783496785909Z" fill="#b96d78" stroke="#b96d78"/><path d="M615.8230726327747,-106.72250524163246L632.4229102302343,40.47306806780398L870.4411846585572,-31.98884144425392Z" fill="#e0737b" stroke="#e0737b"/><path d="M615.8230726327747,-106.72250524163246L870.4411846585572,-31.98884144425392L1095.0517904106528,-98.86033717542887Z" fill="#cf717b" stroke="#cf717b"/><path d="M870.4411846585572,-31.98884144425392L632.4229102302343,40.47306806780398L856.0930181946605,133.58319939114153Z" fill="#e59590" stroke="#e59590"/><path d="M870.4411846585572,-31.98884144425392L856.0930181946605,133.58319939114153L963.2385865598917,88.3321690466255Z" fill="#e09d9b" stroke="#e09d9b"/><path d="M870.4411846585572,-31.98884144425392L963.2385865598917,88.3321690466255L919.6150079090148,-29.943387871608138Z" fill="#d78791" stroke="#d78791"/><path d="M870.4411846585572,-31.98884144425392L919.6150079090148,-29.943387871608138L1095.0517904106528,-98.86033717542887Z" fill="#cb7387" stroke="#cb7387"/><path d="M919.6150079090148,-29.943387871608138L963.2385865598917,88.3321690466255L1095.0517904106528,-98.86033717542887Z" fill="#cb7c8d" stroke="#cb7c8d"/><path d="M1095.0517904106528,-98.86033717542887L963.2385865598917,88.3321690466255L1152.4257371015847,122.28684707544744Z" fill="#c58994" stroke="#c58994"/><path d="M1095.0517904106528,-98.86033717542887L1152.4257371015847,122.28684707544744L1221.0366811417043,45.32426015473902Z" fill="#b57b8c" stroke="#b57b8c"/><path d="M1095.0517904106528,-98.86033717542887L1221.0366811417043,45.32426015473902L1240.9446450602263,-46.30218956619501Z" fill="#a9627f" stroke="#a9627f"/><path d="M1095.0517904106528,-98.86033717542887L1240.9446450602263,-46.30218956619501L1399.5238482858986,-116.8783496785909Z" fill="#985871" stroke="#985871"/><path d="M1240.9446450602263,-46.30218956619501L1221.0366811417043,45.32426015473902L1438.9014250505716,63.137156926095486Z" fill="#9e6d85" stroke="#9e6d85"/><path d="M1240.9446450602263,-46.30218956619501L1438.9014250505716,63.137156926095486L1399.5238482858986,-116.8783496785909Z" fill="#905076" stroke="#905076"/><path d="M1399.5238482858986,-116.8783496785909L1438.9014250505716,63.137156926095486L1553.527827244252,-42.02486056834459Z" fill="#854671" stroke="#854671"/><path d="M1399.5238482858986,-116.8783496785909L1553.527827244252,-42.02486056834459L1742.9348732717335,-72.9799584299326Z" fill="#743762" stroke="#743762"/><path d="M1399.5238482858986,-116.8783496785909L1742.9348732717335,-72.9799584299326L1841.8546750489622,-90.03242226317525Z" fill="#672d59" stroke="#672d59"/><path d="M1553.527827244252,-42.02486056834459L1438.9014250505716,63.137156926095486L1535.6367088481784,69.80136984027922Z" fill="#895a7b" stroke="#895a7b"/><path d="M1553.527827244252,-42.02486056834459L1535.6367088481784,69.80136984027922L1747.5854410417378,91.88669728115201Z" fill="#7f5377" stroke="#7f5377"/><path d="M1553.527827244252,-42.02486056834459L1747.5854410417378,91.88669728115201L1742.9348732717335,-72.9799584299326Z" fill="#71396a" stroke="#71396a"/><path d="M1742.9348732717335,-72.9799584299326L1747.5854410417378,91.88669728115201L1815.6546339858323,101.25272425822914Z" fill="#70436e" stroke="#70436e"/><path d="M1742.9348732717335,-72.9799584299326L1815.6546339858323,101.25272425822914L1841.8546750489622,-90.03242226317525Z" fill="#672761" stroke="#672761"/><path d="M1841.8546750489622,-90.03242226317525L1815.6546339858323,101.25272425822914L2015.228639440611,-72.4105171021074Z" fill="#681e5c" stroke="#681e5c"/><path d="M2015.228639440611,-72.4105171021074L1815.6546339858323,101.25272425822914L2084.8902726732194,71.5158624574542Z" fill="#6f2b62" stroke="#6f2b62"/><path d="M-30.164252584800124,126.15399490110576L-113.78556766547263,201.67937812395394L35.38551488891244,192.7410453837365Z" fill="#d55b52" stroke="#d55b52"/><path d="M-30.164252584800124,126.15399490110576L35.38551488891244,192.7410453837365L131.0081418044865,32.21331903710961Z" fill="#d7554b" stroke="#d7554b"/><path d="M131.0081418044865,32.21331903710961L35.38551488891244,192.7410453837365L192.44785216636956,241.0807741060853Z" fill="#e4725a" stroke="#e4725a"/><path d="M131.0081418044865,32.21331903710961L192.44785216636956,241.0807741060853L190.65299740992486,25.00163965858519Z" fill="#e16452" stroke="#e16452"/><path d="M190.65299740992486,25.00163965858519L192.44785216636956,241.0807741060853L338.3821395691484,222.42711757309735Z" fill="#f08a66" stroke="#f08a66"/><path d="M190.65299740992486,25.00163965858519L338.3821395691484,222.42711757309735L434.4584690965712,73.96445791237056Z" fill="#f08261" stroke="#f08261"/><path d="M434.4584690965712,73.96445791237056L338.3821395691484,222.42711757309735L528.3599846251309,284.56571088172495Z" fill="#faaf8a" stroke="#faaf8a"/><path d="M434.4584690965712,73.96445791237056L528.3599846251309,284.56571088172495L580.5909652076662,102.50004468485713Z" fill="#fbad89" stroke="#fbad89"/><path d="M434.4584690965712,73.96445791237056L580.5909652076662,102.50004468485713L632.4229102302343,40.47306806780398Z" fill="#f0917e" stroke="#f0917e"/><path d="M580.5909652076662,102.50004468485713L528.3599846251309,284.56571088172495L709.4565603788942,213.74958537518978Z" fill="#fec7a8" stroke="#fec7a8"/><path d="M580.5909652076662,102.50004468485713L709.4565603788942,213.74958537518978L632.4229102302343,40.47306806780398Z" fill="#f9af96" stroke="#f9af96"/><path d="M632.4229102302343,40.47306806780398L709.4565603788942,213.74958537518978L856.0930181946605,133.58319939114153Z" fill="#f4b59e" stroke="#f4b59e"/><path d="M856.0930181946605,133.58319939114153L709.4565603788942,213.74958537518978L806.6275964397937,272.36895284615457Z" fill="#f4cfb9" stroke="#f4cfb9"/><path d="M856.0930181946605,133.58319939114153L806.6275964397937,272.36895284615457L973.9154067635536,213.83151210844517Z" fill="#eed0bf" stroke="#eed0bf"/><path d="M856.0930181946605,133.58319939114153L973.9154067635536,213.83151210844517L963.2385865598917,88.3321690466255Z" fill="#e8beae" stroke="#e8beae"/><path d="M963.2385865598917,88.3321690466255L973.9154067635536,213.83151210844517L1152.4257371015847,122.28684707544744Z" fill="#dab7ab" stroke="#dab7ab"/><path d="M1152.4257371015847,122.28684707544744L973.9154067635536,213.83151210844517L1162.3665286973119,233.61742487177253Z" fill="#d2c0b7" stroke="#d2c0b7"/><path d="M1152.4257371015847,122.28684707544744L1162.3665286973119,233.61742487177253L1319.5546822529286,165.1692076586187Z" fill="#beb1ab" stroke="#beb1ab"/><path d="M1152.4257371015847,122.28684707544744L1319.5546822529286,165.1692076586187L1221.0366811417043,45.32426015473902Z" fill="#b5979b" stroke="#b5979b"/><path d="M1221.0366811417043,45.32426015473902L1319.5546822529286,165.1692076586187L1438.9014250505716,63.137156926095486Z" fill="#a58692" stroke="#a58692"/><path d="M1438.9014250505716,63.137156926095486L1319.5546822529286,165.1692076586187L1472.3686864692718,212.35588191077113Z" fill="#a39498" stroke="#a39498"/><path d="M1438.9014250505716,63.137156926095486L1472.3686864692718,212.35588191077113L1535.6367088481784,69.80136984027922Z" fill="#977f8e" stroke="#977f8e"/><path d="M1535.6367088481784,69.80136984027922L1472.3686864692718,212.35588191077113L1538.0340568721294,217.23323400132358Z" fill="#999097" stroke="#999097"/><path d="M1535.6367088481784,69.80136984027922L1538.0340568721294,217.23323400132358L1747.5854410417378,91.88669728115201Z" fill="#8b7789" stroke="#8b7789"/><path d="M1747.5854410417378,91.88669728115201L1538.0340568721294,217.23323400132358L1758.927628621459,278.8231396302581Z" fill="#87879a" stroke="#87879a"/><path d="M1747.5854410417378,91.88669728115201L1758.927628621459,278.8231396302581L1815.6546339858323,101.25272425822914Z" fill="#7f7187" stroke="#7f7187"/><path d="M1815.6546339858323,101.25272425822914L1758.927628621459,278.8231396302581L1870.9870128985494,234.91136100143194Z" fill="#807b95" stroke="#807b95"/><path d="M1815.6546339858323,101.25272425822914L1870.9870128985494,234.91136100143194L2084.8902726732194,71.5158624574542Z" fill="#7c597a" stroke="#7c597a"/><path d="M2084.8902726732194,71.5158624574542L1870.9870128985494,234.91136100143194L2039.9735343363136,237.60990061797202Z" fill="#806183" stroke="#806183"/><path d="M2084.8902726732194,71.5158624574542L2039.9735343363136,237.60990061797202L2079.2431907448918,513.7374093197286Z" fill="#8075a2" stroke="#8075a2"/><path d="M-113.78556766547263,201.67937812395394L-97.60887678712606,555.9938244894147L-56.37059938162565,365.7101195678115Z" fill="#cf8088" stroke="#cf8088"/><path d="M-113.78556766547263,201.67937812395394L-56.37059938162565,365.7101195678115L35.38551488891244,192.7410453837365Z" fill="#d4716f" stroke="#d4716f"/><path d="M35.38551488891244,192.7410453837365L-56.37059938162565,365.7101195678115L126.65665939450264,377.1034255810082Z" fill="#dc908c" stroke="#dc908c"/><path d="M35.38551488891244,192.7410453837365L126.65665939450264,377.1034255810082L192.44785216636956,241.0807741060853Z" fill="#e49283" stroke="#e49283"/><path d="M192.44785216636956,241.0807741060853L126.65665939450264,377.1034255810082L266.90634238533676,411.8376778252423Z" fill="#ebaf9f" stroke="#ebaf9f"/><path d="M192.44785216636956,241.0807741060853L266.90634238533676,411.8376778252423L328.80510189570487,348.36476566269994Z" fill="#f2bba3" stroke="#f2bba3"/><path d="M192.44785216636956,241.0807741060853L328.80510189570487,348.36476566269994L338.3821395691484,222.42711757309735Z" fill="#f4b092" stroke="#f4b092"/><path d="M338.3821395691484,222.42711757309735L328.80510189570487,348.36476566269994L528.3599846251309,284.56571088172495Z" fill="#f9c5a7" stroke="#f9c5a7"/><path d="M528.3599846251309,284.56571088172495L328.80510189570487,348.36476566269994L522.7802813239396,358.70209665969014Z" fill="#fad6be" stroke="#fad6be"/><path d="M528.3599846251309,284.56571088172495L522.7802813239396,358.70209665969014L713.777750171721,345.5111438781023Z" fill="#fde7d3" stroke="#fde7d3"/><path d="M528.3599846251309,284.56571088172495L713.777750171721,345.5111438781023L709.4565603788942,213.74958537518978Z" fill="#fee2cc" stroke="#fee2cc"/><path d="M709.4565603788942,213.74958537518978L713.777750171721,345.5111438781023L806.6275964397937,272.36895284615457Z" fill="#f7e2d0" stroke="#f7e2d0"/><path d="M806.6275964397937,272.36895284615457L713.777750171721,345.5111438781023L797.5653043482453,395.91446444392204Z" fill="#f5efe4" stroke="#f5efe4"/><path d="M806.6275964397937,272.36895284615457L797.5653043482453,395.91446444392204L951.2047341931611,326.18639591149986Z" fill="#f0f1e8" stroke="#f0f1e8"/><path d="M806.6275964397937,272.36895284615457L951.2047341931611,326.18639591149986L973.9154067635536,213.83151210844517Z" fill="#ece3d9" stroke="#ece3d9"/><path d="M973.9154067635536,213.83151210844517L951.2047341931611,326.18639591149986L1115.2855132520199,325.39603393524885Z" fill="#dfe4e0" stroke="#dfe4e0"/><path d="M973.9154067635536,213.83151210844517L1115.2855132520199,325.39603393524885L1162.3665286973119,233.61742487177253Z" fill="#d4d5d1" stroke="#d4d5d1"/><path d="M1162.3665286973119,233.61742487177253L1115.2855132520199,325.39603393524885L1334.9830729980022,343.308335468173Z" fill="#c0d6db" stroke="#c0d6db"/><path d="M1162.3665286973119,233.61742487177253L1334.9830729980022,343.308335468173L1319.5546822529286,165.1692076586187Z" fill="#b4c0c3" stroke="#b4c0c3"/><path d="M1319.5546822529286,165.1692076586187L1334.9830729980022,343.308335468173L1472.3686864692718,212.35588191077113Z" fill="#a9b3bb" stroke="#a9b3bb"/><path d="M1472.3686864692718,212.35588191077113L1334.9830729980022,343.308335468173L1472.4648107774556,343.5215242020786Z" fill="#a3bfce" stroke="#a3bfce"/><path d="M1472.3686864692718,212.35588191077113L1472.4648107774556,343.5215242020786L1538.0340568721294,217.23323400132358Z" fill="#9cacbb" stroke="#9cacbb"/><path d="M1538.0340568721294,217.23323400132358L1472.4648107774556,343.5215242020786L1540.2044199686497,410.7332781236619Z" fill="#99bbd1" stroke="#99bbd1"/><path d="M1538.0340568721294,217.23323400132358L1540.2044199686497,410.7332781236619L1758.927628621459,278.8231396302581Z" fill="#8facc5" stroke="#8facc5"/><path d="M1758.927628621459,278.8231396302581L1540.2044199686497,410.7332781236619L1761.724022096023,412.634969484061Z" fill="#86aaca" stroke="#86aaca"/><path d="M1758.927628621459,278.8231396302581L1761.724022096023,412.634969484061L1861.965518211946,408.5822572745383Z" fill="#7f9ec5" stroke="#7f9ec5"/><path d="M1758.927628621459,278.8231396302581L1861.965518211946,408.5822572745383L1870.9870128985494,234.91136100143194Z" fill="#8097bb" stroke="#8097bb"/><path d="M1870.9870128985494,234.91136100143194L1861.965518211946,408.5822572745383L1993.6286893486977,390.4060951061547Z" fill="#7f92bd" stroke="#7f92bd"/><path d="M1870.9870128985494,234.91136100143194L1993.6286893486977,390.4060951061547L2039.9735343363136,237.60990061797202Z" fill="#8083ac" stroke="#8083ac"/><path d="M2039.9735343363136,237.60990061797202L1993.6286893486977,390.4060951061547L2079.2431907448918,513.7374093197286Z" fill="#7f85b8" stroke="#7f85b8"/><path d="M-56.37059938162565,365.7101195678115L-97.60887678712606,555.9938244894147L130.12925799004734,496.33788166567683Z" fill="#d58a94" stroke="#d58a94"/><path d="M-56.37059938162565,365.7101195678115L130.12925799004734,496.33788166567683L126.65665939450264,377.1034255810082Z" fill="#de9897" stroke="#de9897"/><path d="M126.65665939450264,377.1034255810082L130.12925799004734,496.33788166567683L266.90634238533676,411.8376778252423Z" fill="#e7aba1" stroke="#e7aba1"/><path d="M266.90634238533676,411.8376778252423L130.12925799004734,496.33788166567683L172.07086170092225,538.406509431079Z" fill="#e7aea6" stroke="#e7aea6"/><path d="M266.90634238533676,411.8376778252423L172.07086170092225,538.406509431079L409.30237708613276,570.3342682030052Z" fill="#e7baad" stroke="#e7baad"/><path d="M266.90634238533676,411.8376778252423L409.30237708613276,570.3342682030052L328.80510189570487,348.36476566269994Z" fill="#f5c7b1" stroke="#f5c7b1"/><path d="M328.80510189570487,348.36476566269994L409.30237708613276,570.3342682030052L522.7802813239396,358.70209665969014Z" fill="#f7d1be" stroke="#f7d1be"/><path d="M522.7802813239396,358.70209665969014L409.30237708613276,570.3342682030052L565.8059090841562,505.11529742740095Z" fill="#f8dbcd" stroke="#f8dbcd"/><path d="M522.7802813239396,358.70209665969014L565.8059090841562,505.11529742740095L713.777750171721,345.5111438781023Z" fill="#fce8d9" stroke="#fce8d9"/><path d="M713.777750171721,345.5111438781023L565.8059090841562,505.11529742740095L699.8633270803839,520.6173439510167Z" fill="#faeee3" stroke="#faeee3"/><path d="M713.777750171721,345.5111438781023L699.8633270803839,520.6173439510167L797.5653043482453,395.91446444392204Z" fill="#f6efe6" stroke="#f6efe6"/><path d="M797.5653043482453,395.91446444392204L699.8633270803839,520.6173439510167L788.1458802055568,520.5279983673245Z" fill="#f3efeb" stroke="#f3efeb"/><path d="M797.5653043482453,395.91446444392204L788.1458802055568,520.5279983673245L961.4522853679955,538.360504489392Z" fill="#ebf0f1" stroke="#ebf0f1"/><path d="M797.5653043482453,395.91446444392204L961.4522853679955,538.360504489392L951.2047341931611,326.18639591149986Z" fill="#eaf1f1" stroke="#eaf1f1"/><path d="M951.2047341931611,326.18639591149986L961.4522853679955,538.360504489392L1115.2855132520199,325.39603393524885Z" fill="#deeef0" stroke="#deeef0"/><path d="M1115.2855132520199,325.39603393524885L961.4522853679955,538.360504489392L1173.8112931419164,498.3454822842032Z" fill="#d1e7f0" stroke="#d1e7f0"/><path d="M1115.2855132520199,325.39603393524885L1173.8112931419164,498.3454822842032L1334.9830729980022,343.308335468173Z" fill="#bedbe6" stroke="#bedbe6"/><path d="M1334.9830729980022,343.308335468173L1173.8112931419164,498.3454822842032L1324.680708842352,540.1493227668107Z" fill="#b1d4e6" stroke="#b1d4e6"/><path d="M1334.9830729980022,343.308335468173L1324.680708842352,540.1493227668107L1420.7488475739956,494.47490042075515Z" fill="#a8cce2" stroke="#a8cce2"/><path d="M1334.9830729980022,343.308335468173L1420.7488475739956,494.47490042075515L1472.4648107774556,343.5215242020786Z" fill="#a4c7db" stroke="#a4c7db"/><path d="M1472.4648107774556,343.5215242020786L1420.7488475739956,494.47490042075515L1540.2044199686497,410.7332781236619Z" fill="#9cbfd9" stroke="#9cbfd9"/><path d="M1540.2044199686497,410.7332781236619L1420.7488475739956,494.47490042075515L1557.8521475661546,477.5145534519106Z" fill="#98bcda" stroke="#98bcda"/><path d="M1540.2044199686497,410.7332781236619L1557.8521475661546,477.5145534519106L1761.724022096023,412.634969484061Z" fill="#8cb1d2" stroke="#8cb1d2"/><path d="M1761.724022096023,412.634969484061L1557.8521475661546,477.5145534519106L1734.814081331715,554.5327865984291Z" fill="#84aad1" stroke="#84aad1"/><path d="M1761.724022096023,412.634969484061L1734.814081331715,554.5327865984291L1878.9960511866957,477.20163599587977Z" fill="#7d9fcb" stroke="#7d9fcb"/><path d="M1761.724022096023,412.634969484061L1878.9960511866957,477.20163599587977L1861.965518211946,408.5822572745383Z" fill="#7e9ac6" stroke="#7e9ac6"/><path d="M1861.965518211946,408.5822572745383L1878.9960511866957,477.20163599587977L1993.6286893486977,390.4060951061547Z" fill="#7e92c2" stroke="#7e92c2"/><path d="M1993.6286893486977,390.4060951061547L1878.9960511866957,477.20163599587977L2079.2431907448918,513.7374093197286Z" fill="#7d8ac0" stroke="#7d8ac0"/><path d="M-97.60887678712606,555.9938244894147L-71.3963554892689,1100.0528738368303L-45.74857539497316,1014.3839755374938Z" fill="#52276b" stroke="#52276b"/><path d="M-97.60887678712606,555.9938244894147L-45.74857539497316,1014.3839755374938L-17.533022928982973,796.8022696394473Z" fill="#6b437a" stroke="#6b437a"/><path d="M-97.60887678712606,555.9938244894147L-17.533022928982973,796.8022696394473L-48.60876479186118,651.1713393218815Z" fill="#8b6189" stroke="#8b6189"/><path d="M-97.60887678712606,555.9938244894147L-48.60876479186118,651.1713393218815L130.12925799004734,496.33788166567683Z" fill="#b37c93" stroke="#b37c93"/><path d="M130.12925799004734,496.33788166567683L-48.60876479186118,651.1713393218815L172.07086170092225,538.406509431079Z" fill="#be8d9b" stroke="#be8d9b"/><path d="M172.07086170092225,538.406509431079L-48.60876479186118,651.1713393218815L25.45483198016882,721.7309804074466Z" fill="#9d7b96" stroke="#9d7b96"/><path d="M172.07086170092225,538.406509431079L25.45483198016882,721.7309804074466L211.53877906501293,715.2034459356219Z" fill="#9f859b" stroke="#9f859b"/><path d="M172.07086170092225,538.406509431079L211.53877906501293,715.2034459356219L370.7561732735485,665.2955236751586Z" fill="#b09ea7" stroke="#b09ea7"/><path d="M172.07086170092225,538.406509431079L370.7561732735485,665.2955236751586L409.30237708613276,570.3342682030052Z" fill="#c9b2ae" stroke="#c9b2ae"/><path d="M409.30237708613276,570.3342682030052L370.7561732735485,665.2955236751586L568.5756574384868,623.0276369489729Z" fill="#c1bec2" stroke="#c1bec2"/><path d="M409.30237708613276,570.3342682030052L568.5756574384868,623.0276369489729L565.8059090841562,505.11529742740095Z" fill="#d8cfcd" stroke="#d8cfcd"/><path d="M565.8059090841562,505.11529742740095L568.5756574384868,623.0276369489729L699.8633270803839,520.6173439510167Z" fill="#e0dedd" stroke="#e0dedd"/><path d="M699.8633270803839,520.6173439510167L568.5756574384868,623.0276369489729L687.5331213790923,709.6927005238831Z" fill="#c5d6e1" stroke="#c5d6e1"/><path d="M699.8633270803839,520.6173439510167L687.5331213790923,709.6927005238831L796.8274290673435,703.3469080645591Z" fill="#b6d3e4" stroke="#b6d3e4"/><path d="M699.8633270803839,520.6173439510167L796.8274290673435,703.3469080645591L788.1458802055568,520.5279983673245Z" fill="#cbdee9" stroke="#cbdee9"/><path d="M788.1458802055568,520.5279983673245L796.8274290673435,703.3469080645591L961.4522853679955,538.360504489392Z" fill="#c3dfee" stroke="#c3dfee"/><path d="M961.4522853679955,538.360504489392L796.8274290673435,703.3469080645591L920.5216274410486,718.1045140419155Z" fill="#a8d3ee" stroke="#a8d3ee"/><path d="M961.4522853679955,538.360504489392L920.5216274410486,718.1045140419155L1068.1581079680473,726.8269753921777Z" fill="#9dd0f0" stroke="#9dd0f0"/><path d="M961.4522853679955,538.360504489392L1068.1581079680473,726.8269753921777L1173.8112931419164,498.3454822842032Z" fill="#aad6f0" stroke="#aad6f0"/><path d="M1173.8112931419164,498.3454822842032L1068.1581079680473,726.8269753921777L1255.51837711595,623.8858838751912Z" fill="#8ec8ea" stroke="#8ec8ea"/><path d="M1173.8112931419164,498.3454822842032L1255.51837711595,623.8858838751912L1324.680708842352,540.1493227668107Z" fill="#98cbe7" stroke="#98cbe7"/><path d="M1324.680708842352,540.1493227668107L1255.51837711595,623.8858838751912L1478.697731466964,652.0727154705673Z" fill="#78b8e0" stroke="#78b8e0"/><path d="M1324.680708842352,540.1493227668107L1478.697731466964,652.0727154705673L1420.7488475739956,494.47490042075515Z" fill="#83b9de" stroke="#83b9de"/><path d="M1420.7488475739956,494.47490042075515L1478.697731466964,652.0727154705673L1557.8521475661546,477.5145534519106Z" fill="#82b5da" stroke="#82b5da"/><path d="M1557.8521475661546,477.5145534519106L1478.697731466964,652.0727154705673L1554.827365251258,709.0507227089256Z" fill="#61a4d6" stroke="#61a4d6"/><path d="M1557.8521475661546,477.5145534519106L1554.827365251258,709.0507227089256L1734.814081331715,554.5327865984291Z" fill="#64a1d2" stroke="#64a1d2"/><path d="M1734.814081331715,554.5327865984291L1554.827365251258,709.0507227089256L1737.1078211255372,651.220828872174Z" fill="#4790ce" stroke="#4790ce"/><path d="M1734.814081331715,554.5327865984291L1737.1078211255372,651.220828872174L1884.8604295682162,621.0731734056026Z" fill="#4b8ac9" stroke="#4b8ac9"/><path d="M1734.814081331715,554.5327865984291L1884.8604295682162,621.0731734056026L1878.9960511866957,477.20163599587977Z" fill="#618fc7" stroke="#618fc7"/><path d="M1878.9960511866957,477.20163599587977L1884.8604295682162,621.0731734056026L2079.2431907448918,513.7374093197286Z" fill="#6785c1" stroke="#6785c1"/><path d="M2079.2431907448918,513.7374093197286L1884.8604295682162,621.0731734056026L2054.0671781636775,682.6731622964144Z" fill="#4c73bc" stroke="#4c73bc"/><path d="M2079.2431907448918,513.7374093197286L2054.0671781636775,682.6731622964144L2062.3248302657157,943.7340121809393Z" fill="#2b55af" stroke="#2b55af"/><path d="M-48.60876479186118,651.1713393218815L-17.533022928982973,796.8022696394473L25.45483198016882,721.7309804074466Z" fill="#805a86" stroke="#805a86"/><path d="M25.45483198016882,721.7309804074466L-17.533022928982973,796.8022696394473L121.27284681424499,852.7760200202465Z" fill="#745381" stroke="#745381"/><path d="M25.45483198016882,721.7309804074466L121.27284681424499,852.7760200202465L211.53877906501293,715.2034459356219Z" fill="#83688c" stroke="#83688c"/><path d="M211.53877906501293,715.2034459356219L121.27284681424499,852.7760200202465L192.11274409666657,854.8485790751874Z" fill="#7c668b" stroke="#7c668b"/><path d="M211.53877906501293,715.2034459356219L192.11274409666657,854.8485790751874L395.4732810985297,793.5902074445039Z" fill="#8a7c95" stroke="#8a7c95"/><path d="M211.53877906501293,715.2034459356219L395.4732810985297,793.5902074445039L370.7561732735485,665.2955236751586Z" fill="#a096a3" stroke="#a096a3"/><path d="M370.7561732735485,665.2955236751586L395.4732810985297,793.5902074445039L568.5756574384868,623.0276369489729Z" fill="#aaadba" stroke="#aaadba"/><path d="M568.5756574384868,623.0276369489729L395.4732810985297,793.5902074445039L554.1153678204864,868.882144074887Z" fill="#9aa3bb" stroke="#9aa3bb"/><path d="M568.5756574384868,623.0276369489729L554.1153678204864,868.882144074887L687.5331213790923,709.6927005238831Z" fill="#a3b7ce" stroke="#a3b7ce"/><path d="M687.5331213790923,709.6927005238831L554.1153678204864,868.882144074887L701.4821543265134,776.0318813938648Z" fill="#96afcd" stroke="#96afcd"/><path d="M687.5331213790923,709.6927005238831L701.4821543265134,776.0318813938648L796.8274290673435,703.3469080645591Z" fill="#9fbed9" stroke="#9fbed9"/><path d="M796.8274290673435,703.3469080645591L701.4821543265134,776.0318813938648L865.2998441364616,784.1758484579623Z" fill="#95b9da" stroke="#95b9da"/><path d="M796.8274290673435,703.3469080645591L865.2998441364616,784.1758484579623L920.5216274410486,718.1045140419155Z" fill="#95bfe1" stroke="#95bfe1"/><path d="M920.5216274410486,718.1045140419155L865.2998441364616,784.1758484579623L924.1731788311154,845.7884691283107Z" fill="#85b3de" stroke="#85b3de"/><path d="M920.5216274410486,718.1045140419155L924.1731788311154,845.7884691283107L1066.0211114119738,824.1134600155056Z" fill="#7cb0df" stroke="#7cb0df"/><path d="M920.5216274410486,718.1045140419155L1066.0211114119738,824.1134600155056L1068.1581079680473,726.8269753921777Z" fill="#7fb5e2" stroke="#7fb5e2"/><path d="M1068.1581079680473,726.8269753921777L1066.0211114119738,824.1134600155056L1247.7360536623746,879.0228286106139Z" fill="#5e9ed5" stroke="#5e9ed5"/><path d="M1068.1581079680473,726.8269753921777L1247.7360536623746,879.0228286106139L1255.51837711595,623.8858838751912Z" fill="#65a9db" stroke="#65a9db"/><path d="M1255.51837711595,623.8858838751912L1247.7360536623746,879.0228286106139L1450.9417647030205,868.4944045543671Z" fill="#4690ce" stroke="#4690ce"/><path d="M1255.51837711595,623.8858838751912L1450.9417647030205,868.4944045543671L1478.697731466964,652.0727154705673Z" fill="#529bd3" stroke="#529bd3"/><path d="M1478.697731466964,652.0727154705673L1450.9417647030205,868.4944045543671L1554.827365251258,709.0507227089256Z" fill="#3f8aca" stroke="#3f8aca"/><path d="M1554.827365251258,709.0507227089256L1450.9417647030205,868.4944045543671L1587.3184358607978,811.6239043045789Z" fill="#2d78c1" stroke="#2d78c1"/><path d="M1554.827365251258,709.0507227089256L1587.3184358607978,811.6239043045789L1734.7162953112274,770.7237224467099Z" fill="#2b76c0" stroke="#2b76c0"/><path d="M1554.827365251258,709.0507227089256L1734.7162953112274,770.7237224467099L1737.1078211255372,651.220828872174Z" fill="#347fc5" stroke="#347fc5"/><path d="M1737.1078211255372,651.220828872174L1734.7162953112274,770.7237224467099L1873.3845273312181,802.4197343923151Z" fill="#246cbb" stroke="#246cbb"/><path d="M1737.1078211255372,651.220828872174L1873.3845273312181,802.4197343923151L1884.8604295682162,621.0731734056026Z" fill="#3173bf" stroke="#3173bf"/><path d="M1884.8604295682162,621.0731734056026L1873.3845273312181,802.4197343923151L1986.5891225729138,815.4216155782342Z" fill="#225db3" stroke="#225db3"/><path d="M1884.8604295682162,621.0731734056026L1986.5891225729138,815.4216155782342L2054.0671781636775,682.6731622964144Z" fill="#2d60b5" stroke="#2d60b5"/><path d="M2054.0671781636775,682.6731622964144L1986.5891225729138,815.4216155782342L2062.3248302657157,943.7340121809393Z" fill="#113fa3" stroke="#113fa3"/><path d="M-17.533022928982973,796.8022696394473L-45.74857539497316,1014.3839755374938L93.09490565210581,923.1876131147146Z" fill="#5a306f" stroke="#5a306f"/><path d="M-17.533022928982973,796.8022696394473L93.09490565210581,923.1876131147146L121.27284681424499,852.7760200202465Z" fill="#65477b" stroke="#65477b"/><path d="M121.27284681424499,852.7760200202465L93.09490565210581,923.1876131147146L192.11274409666657,854.8485790751874Z" fill="#664e7e" stroke="#664e7e"/><path d="M192.11274409666657,854.8485790751874L93.09490565210581,923.1876131147146L261.3484805356711,969.1582551877946Z" fill="#6b4d7d" stroke="#6b4d7d"/><path d="M192.11274409666657,854.8485790751874L261.3484805356711,969.1582551877946L395.4732810985297,793.5902074445039Z" fill="#756a8c" stroke="#756a8c"/><path d="M395.4732810985297,793.5902074445039L261.3484805356711,969.1582551877946L434.63491313159466,958.3269893378019Z" fill="#796d91" stroke="#796d91"/><path d="M395.4732810985297,793.5902074445039L434.63491313159466,958.3269893378019L554.1153678204864,868.882144074887Z" fill="#7c82a5" stroke="#7c82a5"/><path d="M554.1153678204864,868.882144074887L434.63491313159466,958.3269893378019L561.9575004000217,927.2983100451529Z" fill="#7c7ea8" stroke="#7c7ea8"/><path d="M554.1153678204864,868.882144074887L561.9575004000217,927.2983100451529L711.7539807222784,924.7131723817438Z" fill="#7e8cb8" stroke="#7e8cb8"/><path d="M554.1153678204864,868.882144074887L711.7539807222784,924.7131723817438L701.4821543265134,776.0318813938648Z" fill="#839dc4" stroke="#839dc4"/><path d="M701.4821543265134,776.0318813938648L711.7539807222784,924.7131723817438L865.2998441364616,784.1758484579623Z" fill="#83a6ce" stroke="#83a6ce"/><path d="M865.2998441364616,784.1758484579623L711.7539807222784,924.7131723817438L777.7840454410762,974.027255717665Z" fill="#7596c8" stroke="#7596c8"/><path d="M865.2998441364616,784.1758484579623L777.7840454410762,974.027255717665L924.1731788311154,845.7884691283107Z" fill="#729dd0" stroke="#729dd0"/><path d="M924.1731788311154,845.7884691283107L777.7840454410762,974.027255717665L938.4489887673408,1005.649426644668Z" fill="#6e8cc8" stroke="#6e8cc8"/><path d="M924.1731788311154,845.7884691283107L938.4489887673408,1005.649426644668L1066.0211114119738,824.1134600155056Z" fill="#6697d2" stroke="#6697d2"/><path d="M1066.0211114119738,824.1134600155056L938.4489887673408,1005.649426644668L1125.9744667913765,920.3888234775513Z" fill="#5b8bcb" stroke="#5b8bcb"/><path d="M1066.0211114119738,824.1134600155056L1125.9744667913765,920.3888234775513L1247.7360536623746,879.0228286106139Z" fill="#4a8ccc" stroke="#4a8ccc"/><path d="M1247.7360536623746,879.0228286106139L1125.9744667913765,920.3888234775513L1301.4337692316622,988.6383991967887Z" fill="#3d77c1" stroke="#3d77c1"/><path d="M1247.7360536623746,879.0228286106139L1301.4337692316622,988.6383991967887L1450.9417647030205,868.4944045543671Z" fill="#2e70bd" stroke="#2e70bd"/><path d="M1450.9417647030205,868.4944045543671L1301.4337692316622,988.6383991967887L1410.7061105780303,1022.1936892624944Z" fill="#285fb4" stroke="#285fb4"/><path d="M1450.9417647030205,868.4944045543671L1410.7061105780303,1022.1936892624944L1516.460422212258,971.6018650867045Z" fill="#2058b0" stroke="#2058b0"/><path d="M1450.9417647030205,868.4944045543671L1516.460422212258,971.6018650867045L1587.3184358607978,811.6239043045789Z" fill="#1a64b7" stroke="#1a64b7"/><path d="M1587.3184358607978,811.6239043045789L1516.460422212258,971.6018650867045L1665.75907593593,982.7520788926631Z" fill="#1253ae" stroke="#1253ae"/><path d="M1587.3184358607978,811.6239043045789L1665.75907593593,982.7520788926631L1734.7162953112274,770.7237224467099Z" fill="#105cb2" stroke="#105cb2"/><path d="M1734.7162953112274,770.7237224467099L1665.75907593593,982.7520788926631L1873.3845273312181,802.4197343923151Z" fill="#0753ae" stroke="#0753ae"/><path d="M1873.3845273312181,802.4197343923151L1665.75907593593,982.7520788926631L1906.576471310109,998.5110589675605Z" fill="#003aa0" stroke="#003aa0"/><path d="M1873.3845273312181,802.4197343923151L1906.576471310109,998.5110589675605L1986.5891225729138,815.4216155782342Z" fill="#023ca2" stroke="#023ca2"/><path d="M1986.5891225729138,815.4216155782342L1906.576471310109,998.5110589675605L2062.3248302657157,943.7340121809393Z" fill="#002a98" stroke="#002a98"/><path d="M-45.74857539497316,1014.3839755374938L-71.3963554892689,1100.0528738368303L95.73664764873683,1182.9303432628512Z" fill="#590b55" stroke="#590b55"/><path d="M-45.74857539497316,1014.3839755374938L95.73664764873683,1182.9303432628512L93.09490565210581,923.1876131147146Z" fill="#5e1661" stroke="#5e1661"/><path d="M93.09490565210581,923.1876131147146L95.73664764873683,1182.9303432628512L265.5366280116141,1110.1751619111747Z" fill="#682766" stroke="#682766"/><path d="M93.09490565210581,923.1876131147146L265.5366280116141,1110.1751619111747L261.3484805356711,969.1582551877946Z" fill="#6d3c74" stroke="#6d3c74"/><path d="M261.3484805356711,969.1582551877946L265.5366280116141,1110.1751619111747L326.6249540448189,1074.4550867378712Z" fill="#743f74" stroke="#743f74"/><path d="M261.3484805356711,969.1582551877946L326.6249540448189,1074.4550867378712L434.63491313159466,958.3269893378019Z" fill="#785381" stroke="#785381"/><path d="M434.63491313159466,958.3269893378019L326.6249540448189,1074.4550867378712L536.3487506378442,1112.2047919873148Z" fill="#7a548a" stroke="#7a548a"/><path d="M434.63491313159466,958.3269893378019L536.3487506378442,1112.2047919873148L561.9575004000217,927.2983100451529Z" fill="#7c699c" stroke="#7c699c"/><path d="M561.9575004000217,927.2983100451529L536.3487506378442,1112.2047919873148L644.3642658926547,1104.478272618726Z" fill="#7d66a1" stroke="#7d66a1"/><path d="M561.9575004000217,927.2983100451529L644.3642658926547,1104.478272618726L711.7539807222784,924.7131723817438Z" fill="#7f7db2" stroke="#7f7db2"/><path d="M711.7539807222784,924.7131723817438L644.3642658926547,1104.478272618726L777.7840454410762,974.027255717665Z" fill="#7a7ab5" stroke="#7a7ab5"/><path d="M777.7840454410762,974.027255717665L644.3642658926547,1104.478272618726L826.2596856337041,1082.2452419344336Z" fill="#776fb0" stroke="#776fb0"/><path d="M777.7840454410762,974.027255717665L826.2596856337041,1082.2452419344336L938.4489887673408,1005.649426644668Z" fill="#7077bb" stroke="#7077bb"/><path d="M938.4489887673408,1005.649426644668L826.2596856337041,1082.2452419344336L927.6459602918476,1136.7130245175213Z" fill="#6d72b7" stroke="#6d72b7"/><path d="M938.4489887673408,1005.649426644668L927.6459602918476,1136.7130245175213L1171.4093720074743,1119.859924474731Z" fill="#606eb7" stroke="#606eb7"/><path d="M938.4489887673408,1005.649426644668L1171.4093720074743,1119.859924474731L1125.9744667913765,920.3888234775513Z" fill="#556fbd" stroke="#556fbd"/><path d="M1125.9744667913765,920.3888234775513L1171.4093720074743,1119.859924474731L1301.4337692316622,988.6383991967887Z" fill="#4165b7" stroke="#4165b7"/><path d="M1301.4337692316622,988.6383991967887L1171.4093720074743,1119.859924474731L1312.1834001783282,1149.4117263145745Z" fill="#3756aa" stroke="#3756aa"/><path d="M1301.4337692316622,988.6383991967887L1312.1834001783282,1149.4117263145745L1410.7061105780303,1022.1936892624944Z" fill="#2d4eaa" stroke="#2d4eaa"/><path d="M1410.7061105780303,1022.1936892624944L1312.1834001783282,1149.4117263145745L1365.649039261043,1172.9750789701939Z" fill="#2b4ca1" stroke="#2b4ca1"/><path d="M1410.7061105780303,1022.1936892624944L1365.649039261043,1172.9750789701939L1597.372172344476,1115.4852382466197Z" fill="#20429d" stroke="#20429d"/><path d="M1410.7061105780303,1022.1936892624944L1597.372172344476,1115.4852382466197L1516.460422212258,971.6018650867045Z" fill="#1b3fa3" stroke="#1b3fa3"/><path d="M1516.460422212258,971.6018650867045L1597.372172344476,1115.4852382466197L1665.75907593593,982.7520788926631Z" fill="#1139a0" stroke="#1139a0"/><path d="M1665.75907593593,982.7520788926631L1597.372172344476,1115.4852382466197L1742.2610937338322,1162.3115850705653Z" fill="#092c94" stroke="#092c94"/><path d="M1665.75907593593,982.7520788926631L1742.2610937338322,1162.3115850705653L1847.7785452175885,1119.2283161357045Z" fill="#00238f" stroke="#00238f"/><path d="M1665.75907593593,982.7520788926631L1847.7785452175885,1119.2283161357045L1906.576471310109,998.5110589675605Z" fill="#002193" stroke="#002193"/><path d="M1906.576471310109,998.5110589675605L1847.7785452175885,1119.2283161357045L2018.3469869289547,1110.613968372345Z" fill="#001187" stroke="#001187"/><path d="M1906.576471310109,998.5110589675605L2018.3469869289547,1110.613968372345L2062.3248302657157,943.7340121809393Z" fill="#00118b" stroke="#00118b"/><path d="M95.73664764873683,1182.9303432628512L1365.649039261043,1172.9750789701939L927.6459602918476,1136.7130245175213Z" fill="#7470a5" stroke="#7470a5"/><path d="M95.73664764873683,1182.9303432628512L927.6459602918476,1136.7130245175213L536.3487506378442,1112.2047919873148Z" fill="#7c5f8b" stroke="#7c5f8b"/><path d="M95.73664764873683,1182.9303432628512L536.3487506378442,1112.2047919873148L265.5366280116141,1110.1751619111747Z" fill="#76426a" stroke="#76426a"/><path d="M265.5366280116141,1110.1751619111747L536.3487506378442,1112.2047919873148L326.6249540448189,1074.4550867378712Z" fill="#794c7a" stroke="#794c7a"/><path d="M536.3487506378442,1112.2047919873148L927.6459602918476,1136.7130245175213L644.3642658926547,1104.478272618726Z" fill="#7a6fa5" stroke="#7a6fa5"/><path d="M644.3642658926547,1104.478272618726L927.6459602918476,1136.7130245175213L826.2596856337041,1082.2452419344336Z" fill="#7470ac" stroke="#7470ac"/><path d="M927.6459602918476,1136.7130245175213L1365.649039261043,1172.9750789701939L1171.4093720074743,1119.859924474731Z" fill="#4860a8" stroke="#4860a8"/><path d="M1171.4093720074743,1119.859924474731L1365.649039261043,1172.9750789701939L1312.1834001783282,1149.4117263145745Z" fill="#3354a1" stroke="#3354a1"/><path d="M1365.649039261043,1172.9750789701939L1742.2610937338322,1162.3115850705653L1597.372172344476,1115.4852382466197Z" fill="#143691" stroke="#143691"/><path d="M1742.2610937338322,1162.3115850705653L2018.3469869289547,1110.613968372345L1847.7785452175885,1119.2283161357045Z" fill="#001783" stroke="#001783"/></g></svg>