<?xml version="1.0" encoding="UTF-8" standalone="no"?>
<svg width="150px" height="30px" viewBox="0 0 150 30" version="1.1" xmlns="http://www.w3.org/2000/svg" xmlns:xlink="http://www.w3.org/1999/xlink" xmlns:sketch="http://www.bohemiancoding.com/sketch/ns">
    <title>footer-logo</title>
    <description>Created with Sketch (http://www.bohemiancoding.com/sketch)</description>
    <defs></defs>
    <g id="Page-1" stroke="none" stroke-width="1" fill="none" fill-rule="evenodd" sketch:type="MSPage">
        <g id="footer-logo" sketch:type="MSArtboardGroup" fill="#9B9B9B">
            <g id="Everlytic_Logo---white" sketch:type="MSLayerGroup" transform="translate(2.000000, 1.000000)">
                <g id="Group" sketch:type="MSShapeGroup">
                    <g transform="translate(30.821918, 0.000000)" id="Shape">
                        <path d="M14.4055479,15.6506115 L3.95445205,15.6506115 C3.95445205,17.8331223 5.70924658,18.9246906 9.2180137,18.9246906 C10.830411,18.9246906 12.4432192,18.7700935 14.0562329,18.4617338 L14.0562329,21.7061871 C12.6464384,22.0135036 10.830411,22.1699784 8.60938356,22.1699784 C2.81794521,22.1699784 -0.0770547945,19.4043381 -0.0770547945,13.8734748 C-0.0770547945,8.59151079 2.57445205,5.94979856 7.87952055,5.94979856 C13.1736986,5.94979856 15.3491096,9.18340288 14.4055479,15.6506115 L14.4055479,15.6506115 Z M3.95445205,12.654223 L10.6173288,12.654223 C10.7603425,10.3265036 9.69493151,9.16295683 7.42315068,9.16295683 C5.29273973,9.1627482 4.13712329,10.3265036 3.95445205,12.654223 L3.95445205,12.654223 Z"></path>
                        <path d="M15.5311644,5.94979856 L19.7919863,5.94979856 L23.6708219,17.2873381 L27.7027397,5.94979856 L31.9621233,5.94979856 L25.4660959,22.1699784 L21.6320548,22.1699784 L15.5311644,5.94979856 L15.5311644,5.94979856 Z"></path>
                        <path d="M47.3582877,15.6506115 L36.9067808,15.6506115 C36.9067808,17.8331223 38.6609589,18.9246906 42.1699315,18.9246906 C43.7829452,18.9246906 45.3959589,18.7700935 47.0087671,18.4617338 L47.0087671,21.7061871 C45.5987671,22.0135036 43.7829452,22.1699784 41.5619178,22.1699784 C35.7706849,22.1699784 32.8746575,19.4043381 32.8746575,13.8734748 C32.8746575,8.59151079 35.5269863,5.94979856 40.8312329,5.94979856 C46.1260274,5.94979856 48.3012329,9.18340288 47.3582877,15.6506115 L47.3582877,15.6506115 Z M36.9065753,12.654223 L43.5696575,12.654223 C43.7114384,10.3265036 42.6466438,9.16295683 40.375274,9.16295683 C38.2450685,9.1627482 37.0882192,10.3265036 36.9065753,12.654223 L36.9065753,12.654223 Z"></path>
                        <path d="M50.385411,22.1699784 L50.385411,5.94979856 L53.5043836,5.94979856 L54.0069863,8.01943885 C55.4063014,6.63953957 56.8867808,5.94979856 58.4488356,5.94979856 L58.4488356,9.25517266 C56.9473973,9.25517266 55.6033562,9.93990647 54.4177397,11.3097914 L54.4177397,22.1701871 L50.385411,22.1701871 L50.385411,22.1699784 Z"></path>
                        <path d="M64.7626027,0.080323741 L64.7626027,22.1699784 L60.7310959,22.1699784 L60.7310959,0.080323741 L64.7626027,0.080323741 L64.7626027,0.080323741 Z"></path>
                        <path d="M66.6632877,5.94979856 L70.9391096,5.94979856 L74.9710274,17.6276187 L78.9113014,5.94979856 L83.1106849,5.94979856 L76.4773973,22.6485827 C75.300411,25.5930216 73.4182192,27.6881151 70.8324658,28.935741 L68.8849315,26.1390144 C70.6703425,25.346 71.9689726,24.0537266 72.7797945,22.2626115 L66.6632877,5.94979856 L66.6632877,5.94979856 Z"></path>
                        <path d="M85.0115753,3.32352518 L87.9924658,3.32352518 L88.6025342,5.94979856 L92.3132877,5.94979856 L92.3132877,9.1942518 L89.0430822,9.1942518 L89.0430822,16.654554 C89.0430822,18.1688129 89.6868493,18.9248993 90.9756164,18.9248993 L92.3132877,18.9248993 L92.3132877,22.1701871 L89.0278767,22.1701871 C86.3504795,22.1701871 85.0117808,20.7130935 85.0117808,17.7978633 L85.0117808,3.32352518 L85.0115753,3.32352518 Z"></path>
                        <path d="M99.3879452,5.94979856 L99.3879452,22.1699784 L95.3560274,22.1699784 L95.3560274,5.94979856 L99.3879452,5.94979856 L99.3879452,5.94979856 Z"></path>
                        <path d="M115.43774,21.7063957 C114.119384,22.0137122 112.649178,22.1701871 111.025685,22.1701871 C105.144041,22.1701871 102.201575,19.3630288 102.201575,13.7510072 C102.201575,8.55061871 105.144041,5.94979856 111.025685,5.94979856 C112.648973,5.94979856 114.119384,6.10376978 115.43774,6.41338129 L115.43774,9.6576259 C114.119384,9.34843165 112.750274,9.1942518 111.329795,9.1942518 C107.931986,9.1942518 106.233082,10.7131007 106.233082,13.7510072 C106.233082,17.2001295 107.931986,18.9248993 111.329795,18.9248993 C112.750274,18.9248993 114.119384,18.7703022 115.43774,18.4619424 L115.43774,21.7063957 L115.43774,21.7063957 Z"></path>
                        <path d="M94.9165068,3.20376978 L94.9165068,0.0778201439 L97.9919178,0.0778201439 C99.2231507,0.0778201439 99.8270548,0.712482014 99.8270548,1.96261151 L99.8270548,3.29577698 C99.8270548,4.46495683 99.2338356,5.09565468 97.7913699,5.09565468 L96.7600685,5.09565468 C95.5288356,5.09544604 94.9165068,4.47580576 94.9165068,3.20376978 L94.9165068,3.20376978 Z"></path>
                    </g>
                    <path d="M15.0696575,2.24635252 L0.0417123288,2.24635252 L0.0417123288,17.5241367 C0.0417123288,23.7399424 3.02753425,26.7682518 9.04808219,26.7682518 L14.0907534,26.7682518 C21.1380822,26.7682518 24.039863,23.6863237 24.039863,17.9716547 L24.039863,11.4606331 C24.039863,5.34851799 21.0891781,2.24635252 15.0696575,2.24635252 L15.0696575,2.24635252 Z M18.7785616,21.3642374 L5.30363014,21.3642374 L5.30363014,17.9172014 L18.7785616,17.9172014 L18.7785616,21.3642374 L18.7785616,21.3642374 Z M18.7785616,16.2239353 L5.30363014,16.2239353 L5.30363014,12.7819065 L18.7785616,12.7819065 L18.7785616,16.2239353 L18.7785616,16.2239353 Z M18.7785616,11.0391942 L5.30363014,11.0391942 L5.30363014,7.65057554 L18.7785616,7.65057554 L18.7785616,11.0391942 L18.7785616,11.0391942 Z" id="Shape"></path>
                </g>
            </g>
        </g>
    </g>
</svg>